<?xml version="1.0" encoding="UTF-8" standalone="no"?><svg xmlns="http://www.w3.org/2000/svg" xmlns:xlink="http://www.w3.org/1999/xlink" contentStyleType="text/css" height="848px" preserveAspectRatio="none" style="width:445px;height:848px;background:#FFFFFF;" version="1.1" viewBox="0 0 445 848" width="445px" zoomAndPan="magnify"><defs/><g><rect fill="#F1F1F1" height="33.9688" rx="12.5" ry="12.5" style="stroke:#181818;stroke-width:0.5;" width="63" x="190" y="11"/><text fill="#000000" font-family="sans-serif" font-size="12" lengthAdjust="spacing" textLength="43" x="200" y="32.1387">b=faux</text><rect fill="#F1F1F1" height="33.9688" rx="12.5" ry="12.5" style="stroke:#181818;stroke-width:0.5;" width="45" x="199" y="64.9688"/><text fill="#000000" font-family="sans-serif" font-size="12" lengthAdjust="spacing" textLength="25" x="209" y="86.1074">c=0</text><rect fill="#F1F1F1" height="33.9688" rx="12.5" ry="12.5" style="stroke:#181818;stroke-width:0.5;" width="181" x="131" y="118.9375"/><text fill="#000000" font-family="sans-serif" font-size="12" lengthAdjust="spacing" textLength="161" x="141" y="140.0762">i est une variable aleatoire</text><rect fill="#F1F1F1" height="33.9688" rx="12.5" ry="12.5" style="stroke:#181818;stroke-width:0.5;" width="78" x="182.5" y="172.9063"/><text fill="#000000" font-family="sans-serif" font-size="12" lengthAdjust="spacing" textLength="58" x="192.5" y="194.0449">Affiche "i"</text><rect fill="#F1F1F1" height="33.9688" rx="12.5" ry="12.5" style="stroke:#181818;stroke-width:0.5;" width="182" x="130.5" y="270.875"/><text fill="#000000" font-family="sans-serif" font-size="12" lengthAdjust="spacing" textLength="162" x="140.5" y="292.0137">Affiche "Entrez un nombre"</text><rect fill="#F1F1F1" height="33.9688" rx="12.5" ry="12.5" style="stroke:#181818;stroke-width:0.5;" width="93" x="175" y="324.8438"/><text fill="#000000" font-family="sans-serif" font-size="12" lengthAdjust="spacing" textLength="73" x="185" y="345.9824">s affiche "b"</text><rect fill="#F1F1F1" height="33.9688" rx="12.5" ry="12.5" style="stroke:#181818;stroke-width:0.5;" width="302" x="70.5" y="422.8125"/><text fill="#000000" font-family="sans-serif" font-size="12" lengthAdjust="spacing" textLength="282" x="80.5" y="443.9512">Affiche "Ce n'est pas un entier, recommencez"</text><rect fill="#F1F1F1" height="33.9688" rx="12.5" ry="12.5" style="stroke:#181818;stroke-width:0.5;" width="84" x="179.5" y="476.7813"/><text fill="#000000" font-family="sans-serif" font-size="12" lengthAdjust="spacing" textLength="64" x="189.5" y="497.9199">s Affiche b</text><rect fill="#F1F1F1" height="33.9688" rx="12.5" ry="12.5" style="stroke:#181818;stroke-width:0.5;" width="122" x="160.5" y="530.75"/><text fill="#000000" font-family="sans-serif" font-size="12" lengthAdjust="spacing" textLength="102" x="170.5" y="551.8887">j est l'entier de s</text><polygon fill="#F1F1F1" points="187,378.8125,256,378.8125,268,390.8125,256,402.8125,187,402.8125,175,390.8125,187,378.8125" style="stroke:#181818;stroke-width:0.5;"/><text fill="#000000" font-family="sans-serif" font-size="11" lengthAdjust="spacing" textLength="69" x="187" y="394.6206">s is not digit</text><polygon fill="#F1F1F1" points="94,606.7188,118,606.7188,130,618.7188,118,630.7188,94,630.7188,82,618.7188,94,606.7188" style="stroke:#181818;stroke-width:0.5;"/><text fill="#000000" font-family="sans-serif" font-size="11" lengthAdjust="spacing" textLength="15" x="98.5" y="622.5269">j&gt;i</text><rect fill="#F1F1F1" height="33.9688" rx="12.5" ry="12.5" style="stroke:#181818;stroke-width:0.5;" width="140" x="36" y="650.7188"/><text fill="#000000" font-family="sans-serif" font-size="12" lengthAdjust="spacing" textLength="120" x="46" y="671.8574">Affiche "trop Grand"</text><polygon fill="#F1F1F1" points="248.5,606.7188,272.5,606.7188,284.5,618.7188,272.5,630.7188,248.5,630.7188,236.5,618.7188,248.5,606.7188" style="stroke:#181818;stroke-width:0.5;"/><text fill="#000000" font-family="sans-serif" font-size="11" lengthAdjust="spacing" textLength="15" x="253" y="622.5269">j&lt;i</text><rect fill="#F1F1F1" height="33.9688" rx="12.5" ry="12.5" style="stroke:#181818;stroke-width:0.5;" width="129" x="196" y="650.7188"/><text fill="#000000" font-family="sans-serif" font-size="12" lengthAdjust="spacing" textLength="109" x="206" y="671.8574">Affiche "trop Petit"</text><rect fill="#F1F1F1" height="33.9688" rx="12.5" ry="12.5" style="stroke:#181818;stroke-width:0.5;" width="62" x="345" y="653.7188"/><text fill="#000000" font-family="sans-serif" font-size="12" lengthAdjust="spacing" textLength="42" x="355" y="674.8574">b=true</text><rect fill="#F1F1F1" height="33.9688" rx="12.5" ry="12.5" style="stroke:#181818;stroke-width:0.5;" width="61" x="191" y="727.6875"/><text fill="#000000" font-family="sans-serif" font-size="12" lengthAdjust="spacing" textLength="41" x="201" y="748.8262">c=c+1</text><polygon fill="#F1F1F1" points="183,226.875,260,226.875,272,238.875,260,250.875,183,250.875,171,238.875,183,226.875" style="stroke:#181818;stroke-width:0.5;"/><text fill="#000000" font-family="sans-serif" font-size="11" lengthAdjust="spacing" textLength="77" x="183" y="242.6831">b existe pas?</text><rect fill="#F1F1F1" height="33.9688" rx="12.5" ry="12.5" style="stroke:#181818;stroke-width:0.5;" width="136" x="153.5" y="803.6563"/><text fill="#000000" font-family="sans-serif" font-size="12" lengthAdjust="spacing" textLength="116" x="163.5" y="824.7949">Affiche "Score = c"</text><line style="stroke:#181818;stroke-width:1.0;" x1="221.5" x2="221.5" y1="44.9688" y2="64.9688"/><polygon fill="#181818" points="217.5,54.9688,221.5,64.9688,225.5,54.9688,221.5,58.9688" style="stroke:#181818;stroke-width:1.0;"/><line style="stroke:#181818;stroke-width:1.0;" x1="221.5" x2="221.5" y1="98.9375" y2="118.9375"/><polygon fill="#181818" points="217.5,108.9375,221.5,118.9375,225.5,108.9375,221.5,112.9375" style="stroke:#181818;stroke-width:1.0;"/><line style="stroke:#181818;stroke-width:1.0;" x1="221.5" x2="221.5" y1="152.9063" y2="172.9063"/><polygon fill="#181818" points="217.5,162.9063,221.5,172.9063,225.5,162.9063,221.5,166.9063" style="stroke:#181818;stroke-width:1.0;"/><line style="stroke:#181818;stroke-width:1.0;" x1="221.5" x2="221.5" y1="304.8438" y2="324.8438"/><polygon fill="#181818" points="217.5,314.8438,221.5,324.8438,225.5,314.8438,221.5,318.8438" style="stroke:#181818;stroke-width:1.0;"/><line style="stroke:#181818;stroke-width:1.0;" x1="221.5" x2="221.5" y1="456.7813" y2="476.7813"/><polygon fill="#181818" points="217.5,466.7813,221.5,476.7813,225.5,466.7813,221.5,470.7813" style="stroke:#181818;stroke-width:1.0;"/><line style="stroke:#181818;stroke-width:1.0;" x1="221.5" x2="221.5" y1="510.75" y2="530.75"/><polygon fill="#181818" points="217.5,520.75,221.5,530.75,225.5,520.75,221.5,524.75" style="stroke:#181818;stroke-width:1.0;"/><line style="stroke:#181818;stroke-width:1.0;" x1="221.5" x2="221.5" y1="402.8125" y2="422.8125"/><polygon fill="#181818" points="217.5,412.8125,221.5,422.8125,225.5,412.8125,221.5,416.8125" style="stroke:#181818;stroke-width:1.0;"/><line style="stroke:#181818;stroke-width:1.0;" x1="221.5" x2="221.5" y1="564.7188" y2="574.7188"/><line style="stroke:#181818;stroke-width:1.0;" x1="221.5" x2="384.5" y1="574.7188" y2="574.7188"/><polygon fill="#181818" points="380.5,491.7656,384.5,481.7656,388.5,491.7656,384.5,487.7656" style="stroke:#181818;stroke-width:1.0;"/><line style="stroke:#181818;stroke-width:1.0;" x1="384.5" x2="384.5" y1="390.8125" y2="574.7188"/><line style="stroke:#181818;stroke-width:1.0;" x1="384.5" x2="268" y1="390.8125" y2="390.8125"/><polygon fill="#181818" points="278,386.8125,268,390.8125,278,394.8125,274,390.8125" style="stroke:#181818;stroke-width:1.0;"/><line style="stroke:#181818;stroke-width:1.0;" x1="175" x2="58.5" y1="390.8125" y2="390.8125"/><polygon fill="#181818" points="54.5,477.7656,58.5,487.7656,62.5,477.7656,58.5,481.7656" style="stroke:#181818;stroke-width:1.0;"/><line style="stroke:#181818;stroke-width:1.0;" x1="58.5" x2="58.5" y1="390.8125" y2="586.7188"/><line style="stroke:#181818;stroke-width:1.0;" x1="58.5" x2="221.5" y1="586.7188" y2="586.7188"/><line style="stroke:#181818;stroke-width:1.0;" x1="221.5" x2="221.5" y1="586.7188" y2="591.7188"/><line style="stroke:#181818;stroke-width:1.0;" x1="221.5" x2="221.5" y1="358.8125" y2="378.8125"/><polygon fill="#181818" points="217.5,368.8125,221.5,378.8125,225.5,368.8125,221.5,372.8125" style="stroke:#181818;stroke-width:1.0;"/><line style="stroke:#181818;stroke-width:1.0;" x1="106" x2="106" y1="630.7188" y2="650.7188"/><polygon fill="#181818" points="102,640.7188,106,650.7188,110,640.7188,106,644.7188" style="stroke:#181818;stroke-width:1.0;"/><line style="stroke:#181818;stroke-width:1.0;" x1="106" x2="106" y1="684.6875" y2="707.6875"/><polygon fill="#181818" points="102,697.6875,106,707.6875,110,697.6875,106,701.6875" style="stroke:#181818;stroke-width:1.0;"/><line style="stroke:#181818;stroke-width:1.0;" x1="260.5" x2="260.5" y1="630.7188" y2="650.7188"/><polygon fill="#181818" points="256.5,640.7188,260.5,650.7188,264.5,640.7188,260.5,644.7188" style="stroke:#181818;stroke-width:1.0;"/><line style="stroke:#181818;stroke-width:1.0;" x1="260.5" x2="260.5" y1="684.6875" y2="707.6875"/><polygon fill="#181818" points="256.5,697.6875,260.5,707.6875,264.5,697.6875,260.5,701.6875" style="stroke:#181818;stroke-width:1.0;"/><line style="stroke:#181818;stroke-width:1.0;" x1="130" x2="236.5" y1="618.7188" y2="618.7188"/><polygon fill="#181818" points="226.5,614.7188,236.5,618.7188,226.5,622.7188,230.5,618.7188" style="stroke:#181818;stroke-width:1.0;"/><line style="stroke:#181818;stroke-width:1.0;" x1="221.5" x2="106" y1="591.7188" y2="591.7188"/><line style="stroke:#181818;stroke-width:1.0;" x1="106" x2="106" y1="591.7188" y2="606.7188"/><polygon fill="#181818" points="102,596.7188,106,606.7188,110,596.7188,106,600.7188" style="stroke:#181818;stroke-width:1.0;"/><line style="stroke:#181818;stroke-width:1.0;" x1="284.5" x2="376" y1="618.7188" y2="618.7188"/><line style="stroke:#181818;stroke-width:1.0;" x1="376" x2="376" y1="618.7188" y2="653.7188"/><polygon fill="#181818" points="372,643.7188,376,653.7188,380,643.7188,376,647.7188" style="stroke:#181818;stroke-width:1.0;"/><line style="stroke:#181818;stroke-width:1.0;" x1="376" x2="376" y1="687.6875" y2="707.6875"/><polygon fill="#181818" points="372,697.6875,376,707.6875,380,697.6875,376,701.6875" style="stroke:#181818;stroke-width:1.0;"/><line style="stroke:#181818;stroke-width:1.0;" x1="106" x2="376" y1="707.6875" y2="707.6875"/><line style="stroke:#181818;stroke-width:1.0;" x1="221.5" x2="221.5" y1="707.6875" y2="727.6875"/><polygon fill="#181818" points="217.5,717.6875,221.5,727.6875,225.5,717.6875,221.5,721.6875" style="stroke:#181818;stroke-width:1.0;"/><line style="stroke:#181818;stroke-width:1.0;" x1="221.5" x2="221.5" y1="250.875" y2="270.875"/><polygon fill="#181818" points="217.5,260.875,221.5,270.875,225.5,260.875,221.5,264.875" style="stroke:#181818;stroke-width:1.0;"/><line style="stroke:#181818;stroke-width:1.0;" x1="221.5" x2="221.5" y1="761.6563" y2="771.6563"/><line style="stroke:#181818;stroke-width:1.0;" x1="221.5" x2="419" y1="771.6563" y2="771.6563"/><polygon fill="#181818" points="415,536.7656,419,526.7656,423,536.7656,419,532.7656" style="stroke:#181818;stroke-width:1.0;"/><line style="stroke:#181818;stroke-width:1.0;" x1="419" x2="419" y1="238.875" y2="771.6563"/><line style="stroke:#181818;stroke-width:1.0;" x1="419" x2="272" y1="238.875" y2="238.875"/><polygon fill="#181818" points="282,234.875,272,238.875,282,242.875,278,238.875" style="stroke:#181818;stroke-width:1.0;"/><line style="stroke:#181818;stroke-width:1.0;" x1="171" x2="24" y1="238.875" y2="238.875"/><polygon fill="#181818" points="20,522.7656,24,532.7656,28,522.7656,24,526.7656" style="stroke:#181818;stroke-width:1.0;"/><line style="stroke:#181818;stroke-width:1.0;" x1="24" x2="24" y1="238.875" y2="783.6563"/><line style="stroke:#181818;stroke-width:1.0;" x1="24" x2="221.5" y1="783.6563" y2="783.6563"/><line style="stroke:#181818;stroke-width:1.0;" x1="221.5" x2="221.5" y1="783.6563" y2="803.6563"/><polygon fill="#181818" points="217.5,793.6563,221.5,803.6563,225.5,793.6563,221.5,797.6563" style="stroke:#181818;stroke-width:1.0;"/><line style="stroke:#181818;stroke-width:1.0;" x1="221.5" x2="221.5" y1="206.875" y2="226.875"/><polygon fill="#181818" points="217.5,216.875,221.5,226.875,225.5,216.875,221.5,220.875" style="stroke:#181818;stroke-width:1.0;"/><!--MD5=[1a5bc1ccaa764ee12dbcbb03ac8f8f09]
@startuml
:b=faux;
:c=0;
:i est une variable aleatoire;
:Affiche "i";
while (b existe pas?) 
:Affiche "Entrez un nombre";
:s affiche "b";
while(s is not digit) 
:Affiche "Ce n'est pas un entier, recommencez";
:s Affiche b;
:j est l'entier de s;
endWhile
if (j>i)
:Affiche "trop Grand";
elseif (j<i)
:Affiche "trop Petit";
else
:b=true;
endif
:c=c+1;
endWhile
:Affiche "Score = c";
@enduml

PlantUML version 1.2022.2beta9(Unknown compile time)
(GPL source distribution)
Java Runtime: Java(TM) SE Runtime Environment
JVM: Java HotSpot(TM) 64-Bit Server VM
Default Encoding: UTF-8
Language: en
Country: US
--></g></svg>